<?xml version="1.0" standalone="no"?>
<!DOCTYPE svg PUBLIC "-//W3C//DTD SVG 20010904//EN"
 "http://www.w3.org/TR/2001/REC-SVG-20010904/DTD/svg10.dtd">
<svg version="1.0" xmlns="http://www.w3.org/2000/svg"
 width="200.000000pt" height="200.000000pt" viewBox="0 0 200.000000 200.000000"
 preserveAspectRatio="xMidYMid meet">

<g transform="translate(0.000000,200.000000) scale(0.100000,-0.100000)"
fill="#000000" stroke="none">
<path d="M1205 1365 c-103 -42 -155 -120 -155 -231 1 -106 65 -180 203 -233
131 -51 155 -62 177 -86 24 -26 30 -86 10 -110 -35 -42 -197 -45 -299 -6 -30
11 -55 20 -56 18 -1 -1 -13 -34 -27 -74 l-26 -71 46 -20 c117 -50 330 -56 427
-13 104 46 152 128 143 245 -10 126 -63 180 -242 249 -156 60 -197 107 -147
168 17 21 29 24 103 27 66 3 94 0 137 -17 30 -11 56 -19 57 -18 2 1 14 34 28
72 29 79 31 76 -63 105 -94 30 -236 28 -316 -5z"/>
<path d="M710 1078 c0 -175 -4 -308 -11 -331 -21 -76 -119 -99 -231 -53 l-56
23 -32 -71 c-36 -83 -36 -84 68 -116 79 -25 198 -26 273 -4 66 20 140 89 160
149 9 28 14 135 16 368 l4 327 -95 0 -96 0 0 -292z"/>
</g>
</svg>
